<svg width="26" height="22" viewBox="0 0 26 22" fill="none" xmlns="http://www.w3.org/2000/svg">
<path d="M9.25 4.25L6.25 1.25" stroke="currentColor" stroke-width="2" stroke-linecap="round" stroke-linejoin="round"/>
<path d="M7.75 7.25H6.25" stroke="currentColor" stroke-width="2" stroke-linecap="round" stroke-linejoin="round"/>
<path d="M12.25 2.75V1.25" stroke="currentColor" stroke-width="2" stroke-linecap="round" stroke-linejoin="round"/>
<path d="M15.25 5.75H19.75C20.9435 5.75 22.0881 6.22411 22.932 7.06802C23.7759 7.91193 24.25 9.05653 24.25 10.25C24.25 11.4435 23.7759 12.5881 22.932 13.432C22.0881 14.2759 20.9435 14.75 19.75 14.75H15.25" stroke="currentColor" stroke-width="2" stroke-linecap="round" stroke-linejoin="round"/>
<path d="M5.72003 10.4141L3.06803 13.0661C2.22411 13.91 1.75 15.0546 1.75 16.2481C1.75 17.4415 2.22411 18.5861 3.06803 19.4301C3.91195 20.274 5.05655 20.7481 6.25003 20.7481C7.44351 20.7481 8.58811 20.274 9.43203 19.4301L12.084 16.7781" stroke="currentColor" stroke-width="2" stroke-linecap="round" stroke-linejoin="round"/>
</svg>
