<svg width="26" height="20" viewBox="0 0 26 20" fill="none" xmlns="http://www.w3.org/2000/svg">
<path d="M10.364 16.5003L9.43203 17.4323C8.58811 18.2762 7.44351 18.7503 6.25003 18.7503C5.05655 18.7503 3.91195 18.2762 3.06803 17.4323C2.22411 16.5884 1.75 15.4438 1.75 14.2503C1.75 13.0568 2.22411 11.9122 3.06803 11.0683L7.84103 6.29428C8.64125 5.49225 9.71455 5.02158 10.8466 4.97626C11.9787 4.93094 13.0862 5.31431 13.9479 6.04982C14.8097 6.78532 15.3623 7.81882 15.4954 8.94394C15.6286 10.0691 15.3324 11.203 14.666 12.1193" stroke="currentColor" stroke-width="2" stroke-linecap="round" stroke-linejoin="round"/>
<path d="M15.8162 3.56803L16.5662 2.81803C17.4102 1.97411 18.5548 1.5 19.7482 1.5C20.9417 1.5 22.0863 1.97411 22.9302 2.81803C23.7742 3.66195 24.2483 4.80655 24.2483 6.00003C24.2483 7.19351 23.7742 8.33811 22.9302 9.18203L18.1572 13.955C17.3569 14.7567 16.2835 15.227 15.1516 15.2721C14.0197 15.3171 12.9124 14.9336 12.0508 14.198C11.1892 13.4625 10.6368 12.429 10.5038 11.304C10.3708 10.179 10.667 9.04523 11.3332 8.12903" stroke="currentColor" stroke-width="2" stroke-linecap="round" stroke-linejoin="round"/>
</svg>
